<svg xmlns="http://www.w3.org/2000/svg" viewBox="0 0 128 160" x="0px" y="0px"><path d="M35.59,29.245c.391.6,1.952.29,1.948.289,1.647-.179,2.413,1.85,3.008,3.824a1.213,1.213,0,0,0,.013.149.375.375,0,0,0,.49.292c.519-.177.79-.2,1.131.132a2.046,2.046,0,0,1,.555,1.424,4.346,4.346,0,0,1-.212,1.492c-.048.181-.1.368-.144.572a1.3,1.3,0,0,0,.365,1.188,2.212,2.212,0,0,0,1.519.647,1.531,1.531,0,0,0,.2-.013.62.62,0,0,0,.239-.043.375.375,0,0,0,.2-.4,1.345,1.345,0,0,1,.06-.578c.034-.129.138-.521.845-.606l.224-.021c.51-.049,1.09-.1,1.678-.211a.375.375,0,0,0,.3-.312,6.34,6.34,0,0,1,.344-1.3.375.375,0,0,0-.217-.482A2.559,2.559,0,0,1,46.5,33.554a2.375,2.375,0,0,1-.011-1.314.37.37,0,0,0-.187-.415.378.378,0,0,0-.313-.021c-.731.188-2.146.122-2.488-.317a2.923,2.923,0,0,1-.488-1.043,2.508,2.508,0,0,0-.976-1.508c-.5-.355-1.536-1.094-1.473-1.794.08-1.054,1.757-1.773,2.866-2.248.9-.385,1.348-.578,1.348-1,0-2.775.751-3.022,2.566-3.619a17.65,17.65,0,0,0,2.2-.848.834.834,0,0,1,.991.161.381.381,0,0,0,.136.083.628.628,0,0,1,.375.364,6.391,6.391,0,0,1,.329.72.372.372,0,0,0,.3.231.367.367,0,0,0,.348-.14l.12-.148c.053-.066.1-.129.144-.18a.852.852,0,0,1,1.01-.089,5.338,5.338,0,0,1,.53.317l.12.077a.375.375,0,0,0,.4.006,3.7,3.7,0,0,0,.653-.55,2.556,2.556,0,0,1,.627-.507,2.323,2.323,0,0,1,1.854-.131c.215.082.385.163.529.231.674.319,1.011.381,1.882-.251a1.406,1.406,0,0,0,.474-1.954.408.408,0,0,0-.051-.085,1.59,1.59,0,0,1-.071-.172c-.076-.138-.139-.264-.2-.4a5.01,5.01,0,0,1-.415-2.322.376.376,0,0,0-.052-.225l-.1-.17a2.339,2.339,0,0,1-.517-1.467,3.618,3.618,0,0,1,.47-1.255,7.546,7.546,0,0,0,.366-.771,2.5,2.5,0,0,1,.2-.41.445.445,0,0,0-.137-.537l-.077-.058a.38.38,0,0,0-.426.005,1.626,1.626,0,0,1-1.816-.084l-.092-.054a3.933,3.933,0,0,1-.529-.335.19.19,0,0,1,.018-.051.375.375,0,0,0-.646-.376c-.081.115-.158.234-.235.352a4.04,4.04,0,0,1-.493.659c-.747.759-1.242,1.088-1.878.792a1.047,1.047,0,0,1-.309-.206.393.393,0,0,0-.544.014.368.368,0,0,0-.1.165,4.4,4.4,0,0,1-1.992,2.147,1.146,1.146,0,0,1-.918.254,1.668,1.668,0,0,1-.905-.908.375.375,0,0,0-.5-.161,2.323,2.323,0,0,1-1.487.219,5.225,5.225,0,0,1-1.656-.518.375.375,0,0,0-.516.147,4.029,4.029,0,0,1-1.659,1.762l-.094.024c-.055.013-.11.026-.161.043a.375.375,0,0,0-.2.155c-.113.178-.24.342-.36.5l-.114.15c-.029.032-.1.092-.177.164-.45.407-.623.581-.644.8a3.338,3.338,0,0,1-.118.7A.831.831,0,0,1,40.2,16.7a.466.466,0,0,0-.273.054c-.8.289-3.668,1.712-3.151,3.395a5,5,0,0,0,1.7,2.288,7.338,7.338,0,0,1,1.145,1.192,1.757,1.757,0,0,1,.392,1.419c-.238,1.134-1.848,2.078-2.809,2.643a.365.365,0,0,0-.145.154.8.8,0,0,1-.875.447.388.388,0,0,0-.5.163A.656.656,0,0,0,35.59,29.245Z"/><path d="M70.843,40.015a1.314,1.314,0,0,1,1.425.143.375.375,0,0,0,.509-.552,1.706,1.706,0,0,1-.352-.694,1.289,1.289,0,0,1-.041-.182.378.378,0,0,0-.055-.2c.007.01,0,0,0-.027a.364.364,0,0,0-.153-.2,2.135,2.135,0,0,1-.587-.508.371.371,0,0,0-.239-.149,1.639,1.639,0,0,1-1.3-1.105.777.777,0,0,1,.281-.81.376.376,0,0,0,.112-.33c-.067-.424-.121-.848-.173-1.273a.376.376,0,0,0-.311-.323,4.637,4.637,0,0,1-1.992-.832c-.638-.574-.489-.992-.119-1.809l.118-.266a.376.376,0,0,0-.016-.332,1.634,1.634,0,0,1-.181-.7,1.414,1.414,0,0,1,.171-.6l.155-.211a.367.367,0,0,0,.052-.118c.071-.281.12-.585.169-.894a7.453,7.453,0,0,1,.242-1.141.377.377,0,0,0-.241-.474,1.344,1.344,0,0,1-.993-1.463,1.235,1.235,0,0,0-.562-1.274c-.147-.12-.345-.283-.619-.551a2.365,2.365,0,0,1-.456-1.924c.075-.352-.223-3.641-1.006-3.98a.539.539,0,0,0-.677.234,2.207,2.207,0,0,1-1.508,1.1.377.377,0,0,0-.328.291,4.042,4.042,0,0,1-.989,1.852c-.8.882-2.22,1.544-3.27,1.04-.731-.364-1.215-.607-1.891-.167a.375.375,0,0,0-.013.622c.506.355,1.079.72,1.749,1.114a.375.375,0,0,0,.455-.058.74.74,0,0,1,.265-.17.905.905,0,0,1,1.07.147A4.512,4.512,0,0,1,60.729,27.5c-.19.5-.652.809-1.457.988a3.5,3.5,0,0,1-.784.054c-.122,0-.245,0-.368,0a.454.454,0,0,0-.375.359l-.048.157a4.487,4.487,0,0,0,.334,2.131c.41,1.3.622,2.2-.132,2.865A4.73,4.73,0,0,1,55.462,35.3a3.837,3.837,0,0,1-.629.027.374.374,0,0,0-.1.734,7.122,7.122,0,0,0,1.2.208,3.409,3.409,0,0,1,2.232.82,2.072,2.072,0,0,1,.411.559c.259.489.518.543,1.437.543h0c.3-.05.571.208.865.458l.165.138a.765.765,0,0,1,.106.921.376.376,0,0,0-.013.308.372.372,0,0,0,.221.213,14.4,14.4,0,0,1,2.391,1.248,12.538,12.538,0,0,0,1.242.7,7.078,7.078,0,0,1,3.222,2.369.377.377,0,0,0,.312.167.391.391,0,0,0,.049,0,1.113,1.113,0,0,0,.824-.453,2.253,2.253,0,0,0-.012-1.781,2.7,2.7,0,0,1-.149-1.037C69.435,40.707,69.976,40.362,70.843,40.015Z"/><path d="M31.55,46.907a.375.375,0,0,0-.229.652l.226.2a5.149,5.149,0,0,1,1.427,1.673.373.373,0,0,0,.209.214l.214.088c.838.345,1.707.7,2.151.181a1.318,1.318,0,0,1,1.508-.454,1.872,1.872,0,0,1,.735.485,2.094,2.094,0,0,0,1.84.435,3.767,3.767,0,0,1,.558-.027,6.7,6.7,0,0,1,2.4.678c.216.1.441.19.67.283a5.314,5.314,0,0,1,2.292,1.406.374.374,0,0,0,.3.15,4.722,4.722,0,0,1,1.238.176,1.02,1.02,0,0,1,.6.388.771.771,0,0,0,.584.332,1.651,1.651,0,0,0,.928-.484,1.572,1.572,0,0,1,1.564-.492l.111.031c.447.122.692.189.934.05s.292-.362.383-.709c.042-.162.1-.37.182-.629a1.438,1.438,0,0,1,1.137-1,4.166,4.166,0,0,0,1.555-.8,2.613,2.613,0,0,1,1.632-.68,1.806,1.806,0,0,1,1.724.944.375.375,0,0,0,.24.207.382.382,0,0,0,.313-.052,2.4,2.4,0,0,1,.6-.3.575.575,0,0,0,.294-.207A1.251,1.251,0,0,0,60,49.37a1.576,1.576,0,0,1,1.62-.83,1.646,1.646,0,0,1,.555.314c.1.075.2.15.312.218a.375.375,0,0,0,.463-.053l.027-.03c.057-.04.114-.084.17-.129a.375.375,0,0,0,.031-.559,14.874,14.874,0,0,0-2.291-1.737c-.428-.283-.858-.568-1.262-.869a.384.384,0,0,0-.336-.056.375.375,0,0,0-.243.238A2.09,2.09,0,0,1,58,47.292a2.526,2.526,0,0,1-2.029-.408,7.953,7.953,0,0,0-2.52-.367,13.041,13.041,0,0,1-2.493-.279.375.375,0,0,0-.746.071.726.726,0,0,1-.328.719.379.379,0,0,0-.158.3.371.371,0,0,0,.144.3,2.794,2.794,0,0,1,1.26,2.171.879.879,0,0,1-.609,1.077c-1.353.5-2.353-.146-3.513-.9a5.573,5.573,0,0,0-3.564-1.264c-.313.028-.666.073-1.043.121-1.7.215-4.025.514-5.147-.6a10.228,10.228,0,0,1-2.057-4.016c0-.607,1.787-2.711,2.655-2.744a.375.375,0,0,0,.321-.543L38.1,40.8l0-.029a.373.373,0,0,0-.428-.3.377.377,0,0,0-.3.278,3.281,3.281,0,0,1-1.118-.025.465.465,0,0,1-.113-.064.373.373,0,0,0-.433-.008,4.048,4.048,0,0,1-1.276.493c-.588.153-1.142.3-1.349.8-.176.433-.027,1,.482,1.842.63,1.043.837,1.833.6,2.285C33.836,46.686,32.66,46.838,31.55,46.907Z"/><path d="M48.535,33.362c.215.384.661.548,1.327.482a.646.646,0,0,1,.6.307.374.374,0,0,0,.487.118,4.674,4.674,0,0,1,1.768-.425l.141-.012c1.092-.1,2.743-.249,3.208-1.193a1.578,1.578,0,0,0-.24-1.578,1.906,1.906,0,0,1-.264-1.29l.064-.231c.261-.953.558-2.032,1.384-2.459a2.572,2.572,0,0,1,1.145-.185c.118,0,.234,0,.346-.01a.618.618,0,0,0,.508-.274,1.242,1.242,0,0,0-.04-1.132.376.376,0,0,0-.477-.218,1.009,1.009,0,0,1-.767-.054,8.628,8.628,0,0,1-1.177-.7,6.819,6.819,0,0,0-1.711-.913,3.187,3.187,0,0,1-1.267-.853.375.375,0,0,0-.55.045.8.8,0,0,1-.647.336A2.506,2.506,0,0,1,49.876,21.4a.377.377,0,0,0-.452-.183c-.435.147-.877.268-1.321.391-.365.1-.731.2-1.1.318-.75.248-.665,1.191-.595,1.949a3.083,3.083,0,0,1,.014.813,1.552,1.552,0,0,1-1.273,1.145,2.521,2.521,0,0,0-1.258.593,1.974,1.974,0,0,1-.594.359c-.022.007-.117.057-.137.068a1.232,1.232,0,0,0-.2.126.392.392,0,0,0-.12.315.434.434,0,0,0,.17.312c1.091.839,1.742,1.4,1.579,2.158a.375.375,0,0,0,.733.16,1.26,1.26,0,0,1,.595-.85,4.815,4.815,0,0,1,3.291-.046.9.9,0,0,1,.579.561.7.7,0,0,1-.1.671C48.572,31.738,48.2,32.752,48.535,33.362Zm9.946-6.85Z"/><path d="M67.2,56.455a1,1,0,0,1,.537-.727.375.375,0,0,0,.207-.367c-.076-.938-.1-1.891-.122-2.812a35.862,35.862,0,0,0-.271-4.2,5.309,5.309,0,0,0-3.461-4.766,31.217,31.217,0,0,0-3.913-1.439.371.371,0,0,0-.282.065.38.38,0,0,0-.152.246l-.059.344c-.027.148-.054.3-.076.448a.373.373,0,0,0,.077.29,11.869,11.869,0,0,0,2.926,2.311c1.9,1.222,3.87,2.486,3.737,4.564-.235,3.519-1.056,6.191-4.3,7.8a40.8,40.8,0,0,1-4.5,1.815,24.4,24.4,0,0,0-7.52,3.731c-.531.433-1.1.857-1.666,1.286-2.1,1.579-4.278,3.212-5.347,5.708-1.2,2.822-.274,5.3.627,7.691.278.738.565,1.5.784,2.263a.375.375,0,0,0,.36.271.347.347,0,0,0,.09-.011l.149-.037a9.252,9.252,0,0,0,4.244-1.874.376.376,0,0,0,.057-.512.838.838,0,0,1-.167-.4,3.213,3.213,0,0,0-.21-.908.374.374,0,0,0-.477-.229l-.231.08a11.81,11.81,0,0,0-1.147.441.931.931,0,0,1-1.241-.5.629.629,0,0,1,.325-.908c.332-.149.664-.275.993-.4.228-.087.455-.173.679-.265a.374.374,0,0,0,.224-.424,1.77,1.77,0,0,1-.049-.649,9.754,9.754,0,0,0,0-1.9c-.028-.448-.055-.87-.04-1.272a.689.689,0,0,0-.083-.265.715.715,0,0,1-.05-.1c-.144-.52.227-.869.71-1.048a.374.374,0,0,0,.168-.091c.174-.164.357-.328.523-.478.574-.514.71-.643.739-.884a1.74,1.74,0,0,1,.764-1.274,2.991,2.991,0,0,1,1.22-.408c.309-.013.549-.027.76-.056A.382.382,0,0,0,53,66.379.425.425,0,0,0,52.969,66a.567.567,0,0,1-.075-.161.89.89,0,0,1,.115-.688.669.669,0,0,1,.442-.316,1.934,1.934,0,0,1,1.015.092.407.407,0,0,0,.373-.071c.658-.521,1.316-1.042,1.958-1.587a4.175,4.175,0,0,1,2.718-1.238c.193-.008.461,0,.767.013,1.374.041,3.253.1,3.949-.707a.659.659,0,0,1,.488-.264.892.892,0,0,1,.608.3.375.375,0,0,0,.642-.174,2.484,2.484,0,0,0-.133-1.377.89.89,0,0,1,.265-.838,1.905,1.905,0,0,1,.664-.509A.375.375,0,0,0,67,58.024a1.62,1.62,0,0,1,.138-1.42A.369.369,0,0,0,67.2,56.455Z"/><path d="M61.167,12.928a2.9,2.9,0,0,1,.7.049.6.6,0,0,1,.562.669.953.953,0,0,1-.856.9.375.375,0,0,0-.352.374,1.685,1.685,0,0,0,.017.267,3.739,3.739,0,0,0,.224.883,1.139,1.139,0,0,0,.108.249.374.374,0,0,0,.393.2,2.369,2.369,0,0,0,1.021-.588c.719-.578,1.246-.923,1.977-.5,1.109.645,2.869,2.214,2.869,3.677,0,.306-.011.576-.021.822a3.61,3.61,0,0,0,.8,2.873l.133.169a1.521,1.521,0,0,1,.436.846,1.684,1.684,0,0,0,.588,1.2c1.018.872,3.111.7,4.958.545a14.6,14.6,0,0,1,2-.088.994.994,0,0,1,.692.351.73.73,0,0,1,.163.564.375.375,0,0,0,.408.422,2.833,2.833,0,0,1,1.542.288c.938.53,1.476.776,2.527.158,1.36-.792,2.92.064,3.7,1.271a.373.373,0,0,0,.259.167,3.414,3.414,0,0,1,.516.109.916.916,0,0,1,.153.041l.093.028a.377.377,0,0,0,.423-.168,1.621,1.621,0,0,1,.235-.311.867.867,0,0,1,1.024-.131,2.908,2.908,0,0,1,1.175,1.4.38.38,0,0,0,.4.213,2.224,2.224,0,0,1,.486-.023,8.176,8.176,0,0,1,1.115.219,10.02,10.02,0,0,0,2.217.358,1.693,1.693,0,0,0,1.716-.89l0,0c.075-.17.133-.324.188-.467l.047-.124a.376.376,0,0,0-.128-.439,1.649,1.649,0,0,1-.7-1.676.375.375,0,0,0-.611-.342,3.184,3.184,0,0,1-.649-.367c-.312-.22-.586-.428-.871-.673a1.577,1.577,0,0,1-.241-.378c-.177-.335-.4-.752-.85-.855a9.335,9.335,0,0,0-1.095-.166,3.087,3.087,0,0,1-2.076-1.168,2.07,2.07,0,0,1-.34-1.659,1.644,1.644,0,0,1,.987-1.279.376.376,0,0,0,.209-.261,1.087,1.087,0,0,1,.374-.639c.05-.04.118-.1.193-.145a.374.374,0,0,0,.064-.571c-.112-.118-.232-.228-.352-.336-.406-.369-.7-.635-.675-1.2a.919.919,0,0,1,.257-.623l.009-.009a.375.375,0,0,0-.362-.629,2.394,2.394,0,0,1-.368-.134,2.268,2.268,0,0,1-.43-.294.684.684,0,0,1-.131-.184l-.058-.1A.73.73,0,0,0,87,14.54a4.813,4.813,0,0,1-1.453.222,1.758,1.758,0,0,1-1.2-.7,3.383,3.383,0,0,1-.794-1.792,3.109,3.109,0,0,1-.027-1,2.19,2.19,0,0,1,.111-.372,1.84,1.84,0,0,0,.147-.892,1.794,1.794,0,0,0-.417-.935,4.376,4.376,0,0,1-.492-.831C82.331,6.8,82.156,6.8,81.97,6.8a.384.384,0,0,0-.107.015,1.3,1.3,0,0,1-.618.029.377.377,0,0,0-.4.217,2.037,2.037,0,0,1-1.7,1.361c-.673.089-.649.749-.636,1.1a2.377,2.377,0,0,1-.02.536,3.284,3.284,0,0,1-.683,1.644c-1.055,1.1-1.906,1.1-3.3.7L74.12,12.3a6.069,6.069,0,0,1-2.515-1.093.761.761,0,0,1-.118-.957c.07-.121.145-.242.221-.363a4.538,4.538,0,0,0,.583-1.172.809.809,0,0,0-.044-.637.6.6,0,0,0-.391-.276,1.07,1.07,0,0,0-1.034.372,2.256,2.256,0,0,1-1.6.742,1.4,1.4,0,0,1-.194-.044,1.065,1.065,0,0,0-.749.013,2.388,2.388,0,0,0-.63.4c-.078.063-.157.128-.256.194a2.076,2.076,0,0,1-.791.354.375.375,0,0,0-.292.313c-.078.541-.165.942-.584,1.174a4.262,4.262,0,0,1-2.5.438c-.194,0-.4-.007-.613-.007a.481.481,0,0,1-.34-.143.377.377,0,0,0-.218-.1,1.17,1.17,0,0,1-.327-.082.442.442,0,0,0-.512.269.808.808,0,0,1-.077.156c-.024.042-.182.308-.3.491a.375.375,0,0,0-.015.394A.366.366,0,0,0,61.167,12.928Z"/><path d="M23.505,89.418l1.029.175a51.714,51.714,0,0,0,6.045.378l.595.014c.4.01.8.015,1.206.015a58.218,58.218,0,0,0,6.924-.445,96.675,96.675,0,0,1,17.523-.441c3.912.263,7.894.228,11.743.195,2.409-.021,4.9-.043,7.347.007.87.021,1.749.058,2.63.095,1.927.079,3.917.164,5.849.079,2.044-.086,2.767-.195,3.02-.665.215-.4-.029-.805-.367-1.367a10.2,10.2,0,0,1-.682-1.288.375.375,0,0,0-.2-.2c-3.02-1.305-6.6-1.554-10.932-.761a8.908,8.908,0,0,1-3.983-.461c-1.816-.5-3.695-1.009-5.694.158-.576.334-1.519-.117-2.431-.552a4.4,4.4,0,0,0-2.824-.69c-1.289.355-1.714-.294-2.356-1.275a5.969,5.969,0,0,0-1.244-1.5c-1.022-.8-5.331-1.676-6.485-.275a5.717,5.717,0,0,1-2.331,1.365,15.641,15.641,0,0,1-3.159.774,3.881,3.881,0,0,0-1.841,1.044,4.013,4.013,0,0,1-1.351.864,14.8,14.8,0,0,1-4.8-.038c-2.073-.229-4.218-.465-5.883.274a14.782,14.782,0,0,1-5.185,1.059c-.7.056-1.413.112-2.107.207a.327.327,0,0,0-.217.063.368.368,0,0,0-.155.14c-.747,1.2-.964,2-.683,2.523A1.065,1.065,0,0,0,23.505,89.418Z"/><path d="M92.852,88.108c-1.306-2.007-2.676-2.946-4.584-3.14a.376.376,0,0,0-.391.5c.25.684.58,1.391.9,2.075.26.558.519,1.113.739,1.665a.79.79,0,0,1-.23.749c-1.392,1.386-3.915,1.274-5.94,1.186l-.539-.023c-4.076-.142-8.411-.281-12.666-.281-2.712-.008-5.431-.055-8.152-.1-6.4-.112-13.028-.227-19.52.2-1.26.078-2.491.178-3.709.277a72.04,72.04,0,0,1-9.484.351c-.5-.022-1.072-.026-1.675-.03-1.9-.012-4.255-.027-5.76-.677a2.434,2.434,0,0,1-1.474-1.7,3.988,3.988,0,0,1,.839-3.337.375.375,0,0,0-.384-.6,11.1,11.1,0,0,0-1.946.765c-.29.136-.586.274-.895.4-.146.063-.3.122-.456.183a3.719,3.719,0,0,0-2.133,1.491,4.509,4.509,0,0,0-.618,3.516,2.964,2.964,0,0,0,1.689,1.785c.009,0,.151.119.16.122a.374.374,0,0,0,.275.085.759.759,0,0,1,.341.03,3.93,3.93,0,0,1,.662.271.38.38,0,0,0,.159.035c8.534.024,17.409.258,25.991.484,5.962.157,12.127.32,18.182.413,2.514.04,4.912.071,7.239.071a126.961,126.961,0,0,0,17.422-1,17.232,17.232,0,0,1,2.091-.1c.615,0,1.251-.008,1.882-.072,1.832-.185,2.919-.694,3.324-1.556.564-1.2-.392-2.625-1.09-3.667Z"/><path d="M38.756,119.363c-.414-.055-.824-.112-1.227-.168a34.864,34.864,0,0,0-3.588-.384c-.443-.014-.884-.024-1.323-.035a32.542,32.542,0,0,1-4.537-.309.376.376,0,0,0-.424.467c.267,1,.7,2.177,1.637,2.322a6.747,6.747,0,0,0,1.052.077c.475,0,.939-.04,1.395-.077.289-.025.58-.049.873-.063a14.666,14.666,0,0,1,1.483.044c1.578.1,3.368.209,4.516-.893.063-.056.123-.116.184-.176s.1-.1.16-.153a.375.375,0,0,0-.2-.652Z"/><path d="M84.772,118.329c-2.388.074-4.772.332-7.078.581-1.465.159-2.98.322-4.474.437a.375.375,0,0,0-.237.64l.069.067c.921.918,1.871,1.877,3.536,1.808.9-.037,1.811-.022,2.7-.006.487.009.981.018,1.479.018.516,0,1.035-.01,1.551-.039,2.389-.131,2.661-1.9,2.84-3.075a.375.375,0,0,0-.382-.431Z"/><path d="M91.279,95.364c-.312.006-.618.007-.909.008-.454,0-.874,0-1.233.02-1.342.079-2.637.258-3.889.432-1.1.153-2.24.311-3.4.4-17.961,1.425-51.28,0-61.063-.469a.341.341,0,0,0-.343.186.375.375,0,0,0,.008.389,16.223,16.223,0,0,1,1.7,3.752,54.3,54.3,0,0,1,1.935,14.247.377.377,0,0,0,.1.239c2.437,2.7,7.016,2.792,10.7,2.869.832.017,1.63.033,2.36.078.433.027.957.08,1.537.139,2.349.24,5.568.569,7.394-.368a.363.363,0,0,0,.129-.108,1.788,1.788,0,0,1,1.517-.532c1.023,0,2.159-.033,3.363-.068,1.347-.038,2.779-.08,4.229-.08a37.047,37.047,0,0,1,6.876.515.365.365,0,0,0,.188-.012.652.652,0,0,1,.732.214c.679.766,2.338,1.013,4.368,1.013,1.619,0,3.473-.157,5.254-.33.442-.044.82-.081,1.105-.1,1.586-.117,3.172-.321,4.706-.518,1.973-.254,4.013-.517,6.048-.592a.375.375,0,0,0,.317-.2,12.324,12.324,0,0,1,1.805-2.642c1.069-1.063,1.171-2.521,1.269-3.93a14.009,14.009,0,0,1,.155-1.475A87.333,87.333,0,0,1,91.64,95.862a.375.375,0,0,0-.051-.343A.367.367,0,0,0,91.279,95.364Z"/><path d="M17.107,47.674a12.759,12.759,0,0,1,1.105.735c1.183.843,2.4,1.716,4.172,1.014a.644.644,0,0,1,.257-.015.375.375,0,0,0,.409-.345.864.864,0,0,1,.4-.59,2.877,2.877,0,0,1,3.61.713,2.217,2.217,0,0,0,1.365,1.126,1.827,1.827,0,0,0,1.415-.53c.152-.116.4-.312.466-.273a.375.375,0,1,0,.41-.628,8.8,8.8,0,0,1-1.166-.98l-.177-.166a1.688,1.688,0,0,1-.574-1.483.886.886,0,0,1,.879-.873,3.7,3.7,0,0,1,1.216.048.353.353,0,0,0,.1.007l.208-.017c.437-.034.8.043.952-.227a.373.373,0,0,0-.007-.379c-.138-.227-.327-.476-.525-.737a3.609,3.609,0,0,1-.914-1.7,2.929,2.929,0,0,1,2.924-2.918,2.866,2.866,0,0,0,1.155-.458,1.884,1.884,0,0,1,.865-.35,7.424,7.424,0,0,1,.779.172.378.378,0,0,0,.5.173l.007,0a1.667,1.667,0,0,1,2.5.623.373.373,0,0,0,.171.169l.105.047c.14.124.289.247.424.359a.826.826,0,0,1,.185.8A3.8,3.8,0,0,1,37.988,43.8a.742.742,0,0,1-.3.094.375.375,0,0,0-.186.7,1.507,1.507,0,0,1,.429.535,1.887,1.887,0,0,1,.174.774c.009.1.019.2.031.3.167,1.447,2.577,1.206,4.706.995a8.273,8.273,0,0,1,1.929-.079,12.238,12.238,0,0,1,1.485.766l.714.4a.371.371,0,0,0,.474-.111.385.385,0,0,0-.042-.5c-.055-.055-.11-.11-.166-.175a.922.922,0,0,1-.211-.839.863.863,0,0,1,.584-.575c.315-.107.412-.111.395-.118a.407.407,0,0,0,.48-.259,1.2,1.2,0,0,1,.123-.246,2.013,2.013,0,0,1,1.025-.761,15.9,15.9,0,0,1,5.779-.053,1.606,1.606,0,0,0,1.49-.158c.624-.5.578-1.512.528-2.584a8.576,8.576,0,0,1,.012-1.468.928.928,0,0,1,.2-.419.376.376,0,0,0-.1-.55.948.948,0,0,1-.357-.365,2.16,2.16,0,0,0-2.389-1.13,2.525,2.525,0,0,1-1.515-.235c-.3-.175-.491-.3-.614-.379-.209-.136-.348-.225-.547-.162a.568.568,0,0,0-.277.284c-.029.072-.116.291-.809.583-.271.116-.531.21-.781.3a5.687,5.687,0,0,0-2,1.065.836.836,0,0,1-.791.233c-.386-.14-.678-.229-.92-.079a.681.681,0,0,0-.27.564,1.951,1.951,0,0,1-.316.921.848.848,0,0,1-.96.391c-.535-.146-1.069-.3-1.61-.47A.639.639,0,0,1,43,40.735a.387.387,0,0,0-.164-.121,3.439,3.439,0,0,1-1.684-1.37,2.715,2.715,0,0,1-.378-2.265c.012-.041.036-.1.064-.182.066-.181.156-.429.222-.672a.375.375,0,0,0-.078-.342.382.382,0,0,0-.325-.129,1.609,1.609,0,0,1-.815-.244,2.163,2.163,0,0,1-.954-1.771,12.84,12.84,0,0,0-.851-2.024.938.938,0,0,0-1.113-.33c-.076.015-.181.027-.21.031a3.054,3.054,0,0,1-1.97-.559,3.39,3.39,0,0,1-.706-1.132.375.375,0,0,0-.527-.208,4.717,4.717,0,0,0-1.238,1.032,2.812,2.812,0,0,1-1.391.983.372.372,0,0,0-.187.107,1.518,1.518,0,0,1-.969.45,2.738,2.738,0,0,1-.313.027,1.4,1.4,0,0,0-.817.243,1.56,1.56,0,0,1-.572.231,1.882,1.882,0,0,1-.861-.027.375.375,0,0,0-.461.331,1.227,1.227,0,0,1-.962,1.238,3.754,3.754,0,0,1-2.444-.214.375.375,0,0,0-.5.444,1.838,1.838,0,0,1-.982,2.323,4,4,0,0,1-1.8.593.374.374,0,0,0-.346.466.838.838,0,0,1,.008.406c-.456,1.372-1.415,2.151-2.914,3.032a3.16,3.16,0,0,1-2.106.277,3.933,3.933,0,0,0-2.606.392c-1.266.736-2.942,1.854-2.879,3.056.033.617.5,1.133,1.395,1.533l.39.168c1.544.662,2.479,1.138,2.245,2.518a.835.835,0,0,1-.58.544,4.179,4.179,0,0,1-1.065.144c-.156.007-.325.015-.519.03a.376.376,0,0,0-.075.735,4.716,4.716,0,0,0,1.293.208,1.785,1.785,0,0,0,1.854-1.225,5.972,5.972,0,0,1,2.136-1.788A.9.9,0,0,1,17.107,47.674Z"/><path d="M99.385,58.6a.86.86,0,0,1,.234-.812,18.876,18.876,0,0,0,1.87-2.337.374.374,0,0,0,.014-.386.378.378,0,0,0-.247-.189c-.683-.2-1.138-.852-1.351-1.942a.375.375,0,0,0-.566-.247,3.127,3.127,0,0,1-1.455.44.826.826,0,0,1-.67-.4,1.573,1.573,0,0,1-.26-1.06.375.375,0,0,0-.7-.243,4.973,4.973,0,0,1-.67.945.844.844,0,0,1-.8.169c-.775-.147-2.063-.525-1.985-1.4a2.725,2.725,0,0,1,.358-1.2.375.375,0,0,0-.578-.471,6.335,6.335,0,0,1-.79.658c-.454.327-.826.426-1.111.29-.516-.245-.912-1.329-.987-2.7a.376.376,0,0,0-.314-.35c-1.216-.2-1.779-.178-2.085.076l-.128.113a4.589,4.589,0,0,1-2.175,1.313.927.927,0,0,1-.663-.1.374.374,0,0,0-.552.217,3.094,3.094,0,0,1-1.019,1.644.875.875,0,0,1-1,.164,1.966,1.966,0,0,1-.569-.925.375.375,0,0,0-.7,0,2.558,2.558,0,0,1-.45.785.893.893,0,0,1-1.031.1,4.867,4.867,0,0,0-.8-.278A2.123,2.123,0,0,1,77.173,50a1.8,1.8,0,0,1-.209-.256.426.426,0,0,0-.543-.109.383.383,0,0,0-.2.4,1.108,1.108,0,0,1,.02.19,2.091,2.091,0,0,1-.488,1.085.377.377,0,0,0-.028.37c.088.184.193.373.3.563.289.515.588,1.048.462,1.453a2.268,2.268,0,0,1-1.19,1.274c-.166.106-.338.215-.515.34l-.144.1c-.764.553-1.147.83-2.04.513a2.812,2.812,0,0,1-.946-.7.375.375,0,0,0-.633.292c.042.756.039,1.278-.374,1.641a1.537,1.537,0,0,1-1.381.376.372.372,0,0,0-.294.085.377.377,0,0,0-.133.276c-.005.192.009.4.023.611a3.527,3.527,0,0,1-.016.923c-.051.276-.288.459-.7.545a.373.373,0,0,0-.3.4.887.887,0,0,1-.072.394,3.28,3.28,0,0,0-.28,1.336.964.964,0,0,1-.592.98.977.977,0,0,0-.531.577.956.956,0,0,0,.17.715.806.806,0,0,1,.006.8.782.782,0,0,0,.173,1.058.831.831,0,0,1-.3,1.093l-.187.1a1.886,1.886,0,0,1-.744.285.376.376,0,0,0-.361.375V68.4a.374.374,0,0,0,.423.372.841.841,0,0,1,.51.089,1.83,1.83,0,0,1,.818.663.783.783,0,0,0,.52.385c.335.048.652-.149,1.573-.848a1.38,1.38,0,0,1,1.416-.3,2.473,2.473,0,0,1,1.19,2.008,2.385,2.385,0,0,0,.547,1.173,2.206,2.206,0,0,1,.406.728,3.436,3.436,0,0,1-.231,1.146c-.169.55-.281.912.065,1.089a.451.451,0,0,0,.208.066c.285,0,.685-.449,2.262-2.537A1.09,1.09,0,0,1,75.721,72a.686.686,0,0,1,.571.406c.087.145.247.245,1.022.694.354.2.753.436,1.073.645a.366.366,0,0,0,.377.038.331.331,0,0,0,.189-.305,1.013,1.013,0,0,1,.548-.6.892.892,0,0,1,.718.069c.781.38,1.752.85,2.34.4.36-.28.455-.811.29-1.629a1.046,1.046,0,0,1,.228-.862.592.592,0,0,1,.525-.212,14.93,14.93,0,0,1,3.516,1.171.375.375,0,0,0,.693.056A3.34,3.34,0,0,1,91.017,69.8c.822.058.881.4.907.541a.458.458,0,0,0,.34.364c.286.033.4-.207.466-.367s.188-.42.42-.869a1.428,1.428,0,0,1,.3-.38.374.374,0,0,0,.038-.52c-.541-.645-1.117-1.3-1.336-1.518a.8.8,0,0,1-.239-.636.987.987,0,0,1,.414-.69,1.71,1.71,0,0,1,.357-.195.375.375,0,0,0,.254-.477.857.857,0,0,1-.035-.271,1.952,1.952,0,0,1,.446-1.145,1.839,1.839,0,0,1,1.363-.426A2.236,2.236,0,0,0,96,62.907c.02-.007.071-.027.09-.037a.383.383,0,0,0,.152-.144l.06-.111c.025-.046.048-.093.054-.105a5.032,5.032,0,0,1,.86-.614C98.28,61.226,99.889,60.213,99.385,58.6Z"/><path d="M118.251,63.312a23.457,23.457,0,0,0-3.368-1.244c-.421-.11-.612-.489-.876-1.1-.056-.131-.113-.262-.174-.388a.376.376,0,0,0-.44-.2,4.894,4.894,0,0,1-2.462.1,3.069,3.069,0,0,1-1.019-.534,4.972,4.972,0,0,0-.892-.528,1.15,1.15,0,0,0-1.144.232,1.368,1.368,0,0,1-.321.177,2.055,2.055,0,0,1-1.868-.722,2.136,2.136,0,0,1-.744-1.9l.036-.117c.041-.135.083-.276.133-.417a.373.373,0,0,0-.263-.49,5.093,5.093,0,0,1-.738-.249.375.375,0,0,0-.49.2c-.543,1.266-.892,1.592-1.047,1.672a2.327,2.327,0,0,0-1.293,2.116,1.781,1.781,0,0,1-1.036,1.712,25.82,25.82,0,0,0-2.71,2.064.839.839,0,0,1-.264.185.375.375,0,0,0-.2.18.8.8,0,0,1-.246.277,1.781,1.781,0,0,1-.258.143.375.375,0,0,0-.017.664,1.451,1.451,0,0,0,1.375.222,1.148,1.148,0,0,1,1.52.251c.168.2.315.421.462.637l.3.428a2.462,2.462,0,0,0,.8.83,1.42,1.42,0,0,0,.412.141.885.885,0,0,1,.22.066,2.049,2.049,0,0,1,.659.593.781.781,0,0,0,.25.333.82.82,0,0,0,.525.08.57.57,0,0,1,.119,0,5.669,5.669,0,0,1,2.288.9,5.569,5.569,0,0,1,1.853,1.622,1.411,1.411,0,0,1,.174.338,1.618,1.618,0,0,1,.021.782.593.593,0,0,0,.117.584c.223.21.451.155,1.414-.074l.1-.023a4.833,4.833,0,0,1,1.886.131,8.943,8.943,0,0,0,1.307.187l.058,0c.8,0,1.031-.709,1.2-1.23l.084-.253a.376.376,0,0,0,0-.239,2.552,2.552,0,0,1-.091-.951,2.686,2.686,0,0,1,.355-1.116.372.372,0,0,0,.043-.257c-.135-.708-.264-2.393,1.457-2.76a1.432,1.432,0,0,0,1.247-1.013,2.541,2.541,0,0,1,.395-.7h0a1.849,1.849,0,0,1,1.083-.649.375.375,0,0,0,.07-.7Z"/><path d="M22.486,57.8a2.541,2.541,0,0,0,.829,1.149c.331.28.856.495,1.112.852.836,1.166,2.788.044,1.942-1.136a4.336,4.336,0,0,0-1.036-1.027c-.2-.14-.711-.372-.673-.6.091-.55,2.4-.462,2.484-.214.455,1.368,2.628.782,2.17-.6-.563-1.69-2.759-2.135-4.472-1.736a1.072,1.072,0,0,0-.082-.9q-.693-1.284-1.388-2.567c-.689-1.274-2.633-.139-1.943,1.136l1.389,2.566a1.04,1.04,0,0,0,.494.478A2.46,2.46,0,0,0,22.486,57.8Z"/><path d="M44.154,54.019a6.393,6.393,0,0,1-1.366,1.915,1.5,1.5,0,0,0,2.121,2.122,9.344,9.344,0,0,0,1.835-2.523,1.538,1.538,0,0,0-.538-2.052A1.513,1.513,0,0,0,44.154,54.019Z"/><path d="M72.023,33.713c.216-.5.7-2.335,1.481-2.129a1.126,1.126,0,0,0,.6-2.169,2.827,2.827,0,0,0-2.712.788,7.035,7.035,0,0,0-1.311,2.374,1.16,1.16,0,0,0,.4,1.539A1.135,1.135,0,0,0,72.023,33.713Z"/><path d="M73.24,36.1c.565-.128,1.514-.408,2.012.03,1.084.953,2.681-.632,1.591-1.591-1.211-1.064-2.725-.943-4.2-.609C71.23,34.247,71.827,36.417,73.24,36.1Z"/><path d="M88.455,32.237q-.525,1.494-1.048,2.988c-.48,1.369,1.693,1.958,2.17.6l1.047-2.988C91.1,31.466,88.931,30.877,88.455,32.237Z"/><path d="M16.141,35.961a5.431,5.431,0,0,1,1.3,1.181,1.133,1.133,0,0,0,1.591,0,1.151,1.151,0,0,0,0-1.591,7.291,7.291,0,0,0-1.756-1.533C16.05,33.24,14.92,35.186,16.141,35.961Z"/><path d="M19.3,32.344a6.489,6.489,0,0,1,1.337,1.132c.979,1.071,2.567-.524,1.591-1.591A8.771,8.771,0,0,0,20.432,30.4C19.2,29.625,18.074,31.572,19.3,32.344Z"/><path d="M25.974,30.773a31.854,31.854,0,0,1-.06-3.981c.069-1.447-2.181-1.443-2.25,0a31.854,31.854,0,0,0,.06,3.981C23.835,32.208,26.086,32.22,25.974,30.773Z"/><path d="M27.748,27.065a2.8,2.8,0,0,1,1,1.779,1.135,1.135,0,0,0,1.384.785,1.149,1.149,0,0,0,.786-1.384,5.059,5.059,0,0,0-2.038-3.123,1.133,1.133,0,0,0-1.539.4A1.152,1.152,0,0,0,27.748,27.065Z"/><path d="M33.683,27.264a1.131,1.131,0,0,0,1.591,0,1.153,1.153,0,0,0,0-1.591q-.318-.4-.634-.8a1.131,1.131,0,0,0-1.591,0,1.153,1.153,0,0,0,0,1.591Z"/><text x="0" y="143" fill="#000000" font-size="5px" font-weight="bold" font-family="'Helvetica Neue', Helvetica, Arial-Unicode, Arial, Sans-serif">Created by Hey Rabbit</text><text x="0" y="148" fill="#000000" font-size="5px" font-weight="bold" font-family="'Helvetica Neue', Helvetica, Arial-Unicode, Arial, Sans-serif">from the Noun Project</text></svg>